<svg xmlns="http://www.w3.org/2000/svg" width="24" height="24" viewBox="0 0 24 25">
    <path d="M1.82 3.64c-.213.033-.375.123-.552.306-.29.298-.27-.391-.258 8.735l.01 8.219.086.16c.182.336.517.538.894.538s.712-.202.894-.538c.081-.152.087-.22.098-1.31l.013-1.15h17.99l.013 1.15c.011 1.09.017 1.158.098 1.31.182.336.517.538.894.538s.712-.202.894-.538l.086-.16.011-5.28c.01-4.678.004-5.316-.052-5.594-.088-.44-.195-.704-.423-1.045a3.179 3.179 0 0 0-1.745-1.272l-.311-.089-8.729-.011-8.728-.011-.012-1.629c-.01-1.473-.018-1.643-.083-1.773A1.025 1.025 0 0 0 1.82 3.64M5 13.1v3.5H3v-7h2v3.5m15.4-3.396c.214.1.377.256.494.475.086.16.086.175.097 3.291l.011 3.13H7V9.599l6.61.01 6.61.011.18.084" fill-rule="evenodd"/>
</svg>
