<svg xmlns="http://www.w3.org/2000/svg" width="48" height="49" fill="none" viewBox="0 0 48 49">
    <path
        d="M13.707 11.688c-.413.119-.667.491-.667.975v.412l5.14 5.148c2.827 2.832 5.237 5.2 5.356 5.263.119.063.328.114.464.114s.345-.051.464-.114c.119-.063 2.529-2.431 5.356-5.263l5.14-5.148v-.412c0-.324-.043-.462-.205-.655a.995.995 0 0 0-1.016-.322c-.19.055-1.519 1.335-4.999 4.814l-4.739 4.739-4.782-4.78c-2.63-2.628-4.841-4.779-4.914-4.779a.97.97 0 0 1-.238-.033c-.059-.018-.221.001-.36.041m-.395 14.264c-.241.241-.272.32-.272.699v.428l5.261 5.26 5.26 5.261h.878l5.26-5.261 5.261-5.26v-.428c0-.379-.031-.458-.272-.699-.241-.241-.32-.272-.698-.272h-.427l-4.781 4.779L24 35.238l-4.782-4.779-4.781-4.779h-.427c-.378 0-.457.031-.698.272"
        fill-rule="evenodd" fill="#000" />
</svg>
