<svg xmlns="http://www.w3.org/2000/svg" width="24" height="24" viewBox="0 0 24 24">
    <path d="M17.673 1.063c-.261.08-.533.358-.612.627-.077.258-.077.362.002.633.061.209.141.294 2.23 2.384 2.09 2.089 2.175 2.169 2.384 2.23.271.079.375.079.633.002.279-.083.546-.35.629-.629.077-.258.077-.362-.002-.633-.061-.209-.141-.294-2.23-2.384-2.09-2.089-2.175-2.169-2.384-2.23-.262-.076-.403-.076-.65 0M14.66 4.066c-.189.057-.533.393-6.053 5.907-3.219 3.216-5.895 5.919-5.948 6.007-.088.148-1.581 5.505-1.644 5.899-.06.376.175.821.529 1 .366.186.411.178 3.516-.675 1.749-.48 2.86-.804 2.96-.863.088-.053 2.791-2.729 6.007-5.948 5.721-5.727 5.848-5.858 5.91-6.07.079-.272.079-.374 0-.646-.061-.209-.141-.294-2.23-2.384-2.09-2.089-2.175-2.169-2.384-2.23a.974.974 0 0 0-.663.003M16.3 7.72 17.58 9l-5.305 5.305-5.304 5.304-1.75.478c-.962.263-1.758.469-1.769.459-.01-.011.192-.799.45-1.753l.47-1.733 5.304-5.31A977.096 977.096 0 0 1 15 6.44c.011 0 .596.576 1.3 1.28" fill-rule="evenodd"/>
</svg>
