<svg xmlns="http://www.w3.org/2000/svg" width="24" height="24">
    <path d="M11.34 1.641c-1.576.089-3.026.494-4.477 1.252A11.116 11.116 0 0 0 2.842 6.52a11.012 11.012 0 0 0-1.522 8.72c.359 1.446 1.088 2.956 1.98 4.1a11.035 11.035 0 0 0 7.677 4.223c.638.06 2.04.027 2.623-.061 3.587-.545 6.683-2.809 8.262-6.042.823-1.685 1.187-3.365 1.125-5.2-.081-2.4-.85-4.516-2.35-6.46-.375-.487-1.262-1.377-1.781-1.788a11.022 11.022 0 0 0-7.516-2.371m1.76 2.045c3.625.418 6.721 3.14 7.614 6.694.204.809.263 1.307.263 2.22 0 .857-.055 1.367-.224 2.1-.259 1.116-.837 2.348-1.551 3.301-1.38 1.842-3.368 3.06-5.695 3.488-.423.078-.622.09-1.507.09-1.145 0-1.554-.053-2.478-.318a9.012 9.012 0 0 1-6.42-9.975A9.017 9.017 0 0 1 7.72 4.702c1.675-.898 3.469-1.236 5.38-1.016M9.82 7.638c-.214.036-.376.126-.552.308-.284.292-.271.045-.259 4.736L9.02 16.9l.086.16c.247.458.826.669 1.276.465.197-.09 6.152-4.052 6.312-4.2.364-.337.399-.994.072-1.352-.105-.115-6.082-4.128-6.348-4.262a1.06 1.06 0 0 0-.598-.073m2.8 6.029a85.395 85.395 0 0 1-1.6 1.053c-.011 0-.02-.954-.02-2.12v-2.12l1.6 1.067 1.6 1.066-1.58 1.054" fill-rule="evenodd"/>
</svg>