<svg xmlns="http://www.w3.org/2000/svg" width="24" height="24">
    <path
        d="M5.25 2.037a1.087 1.087 0 0 0-.651.546c-.076.141-.078.451-.078 9.417v9.271l.09.167c.249.461.799.679 1.232.488.259-.115 14.185-9.068 14.352-9.227.073-.07.174-.222.224-.338a.983.983 0 0 0-.238-1.076c-.114-.106-13.537-8.755-14.103-9.086-.29-.17-.612-.233-.828-.162m6.932 6.442c2.994 1.925 5.443 3.51 5.443 3.521 0 .011-2.449 1.596-5.443 3.521L6.62 19.098l-.12.077V4.825l.12.077 5.562 3.577"
        fill-rule="evenodd" />
</svg>