<svg xmlns="http://www.w3.org/2000/svg" width="24" height="24"  viewBox="0 0 24 25">
    <path d="M8.57 2.642a5.005 5.005 0 0 0-3.633 2.062c-1.346 1.87-1.215 4.485.309 6.198.729.818 1.545 1.306 2.655 1.586.309.078.463.09 1.099.09.636 0 .79-.012 1.099-.09.891-.225 1.578-.576 2.181-1.114 1.892-1.69 2.265-4.38.901-6.495-.659-1.022-1.805-1.834-2.995-2.119-.282-.068-.471-.092-1.066-.135-.099-.008-.347 0-.55.017m7 .202c-.485.241-.699.823-.475 1.296.149.313.324.451.764.602.514.177.852.373 1.185.687A2.95 2.95 0 0 1 18 7.625c0 .834-.374 1.661-1.012 2.239-.299.271-.579.429-1.075.61-.569.206-.711.322-.852.696-.235.624.255 1.307.939 1.309.265.001.983-.236 1.387-.458 1.216-.669 2.111-1.827 2.482-3.212.095-.354.105-.46.108-1.169.002-.73-.004-.808-.109-1.209a6.768 6.768 0 0 0-.232-.72A5.087 5.087 0 0 0 17.26 3.16c-.795-.393-1.332-.493-1.69-.316M9.712 4.706c.166.034.452.14.659.244.641.321 1.244 1.011 1.465 1.676a3.113 3.113 0 0 1-.156 2.334 3.12 3.12 0 0 1-1.8 1.527c-.256.079-.385.093-.88.093s-.624-.014-.88-.093A3.027 3.027 0 0 1 6.013 7.82c-.059-.92.232-1.676.903-2.341.751-.745 1.687-1.004 2.796-.773M5.57 14.64c-1.747.15-3.263 1.188-4.06 2.78-.19.379-.378.984-.453 1.453-.048.305-.059.669-.049 1.707.011 1.264.016 1.327.098 1.48.388.718 1.4.718 1.788 0 .082-.153.087-.226.111-1.58.025-1.494.038-1.599.238-2.066.248-.58.82-1.181 1.398-1.47.668-.334.527-.324 4.359-.324s3.691-.01 4.359.324c.578.289 1.15.89 1.398 1.47.2.467.213.572.238 2.066.024 1.354.029 1.427.111 1.58.182.336.517.538.894.538s.712-.202.894-.538c.082-.153.087-.216.098-1.48.014-1.478-.017-1.802-.236-2.487-.557-1.744-2.017-3.035-3.843-3.398-.291-.058-.749-.068-3.653-.076-1.826-.006-3.487.004-3.69.021m13 .204c-.485.24-.698.821-.476 1.296.139.298.356.471.749.598.182.06.405.145.495.191a3.072 3.072 0 0 1 1.383 1.442c.236.507.249.61.275 2.129.023 1.333.028 1.408.11 1.56.182.336.517.538.894.538s.712-.202.894-.538c.084-.156.086-.2.086-1.62 0-1.574-.014-1.72-.223-2.366-.41-1.267-1.429-2.43-2.602-2.97-.741-.342-1.251-.425-1.585-.26" fill-rule="evenodd" />
</svg>
