<svg xmlns="http://www.w3.org/2000/svg" width="24" height="24" viewBox="0 0 24 24" fill="none">
    <g clip-path="url(#clip0_1975_5698)">
        <path
            d="M0.649752 24.5H0.555718C0.565691 24.4388 0.57139 24.3761 0.584213 24.3163C1.02446 22.3134 1.46471 20.3104 1.91066 18.3089C1.95483 18.1096 1.93631 17.9444 1.84085 17.7551C0.54432 15.2126 0.161061 12.542 0.809324 9.75605C2.60452 2.04456 11.3482 -1.83325 18.2896 1.98761C22.8446 4.49595 25.2852 9.62223 24.2736 14.6816C22.7733 22.1724 14.591 26.5058 7.35607 23.1234C7.19365 23.0465 7.04833 23.0152 6.86881 23.0579C5.37139 23.4038 3.87112 23.7369 2.37371 24.0843C1.7981 24.2181 1.21395 24.3178 0.651176 24.5H0.649752ZM3.01912 21.976C3.09178 22.0201 3.13452 21.9888 3.17727 21.9788C4.50087 21.6799 5.82589 21.3824 7.14806 21.0763C7.31191 21.0379 7.44298 21.0606 7.58831 21.1389C10.5988 22.7362 13.6905 22.8928 16.778 21.4564C19.9623 19.9744 21.8943 17.4405 22.487 13.9741C22.9443 11.3049 22.3616 8.81222 20.7388 6.64127C18.1657 3.19907 14.695 1.81536 10.4734 2.6026C7.44583 3.16633 5.16195 4.90309 3.64174 7.5851C2.58314 9.45425 2.19704 11.4743 2.46774 13.6111C2.64441 15.009 3.12598 16.3016 3.83978 17.5117C3.90959 17.6298 3.95518 17.7394 3.92241 17.8846C3.72437 18.7516 3.53488 19.62 3.34396 20.4869C3.23426 20.9866 3.12598 21.4863 3.01912 21.9774V21.976Z"
            fill="white" />
        <path
            d="M8.98716 7.17128C9.49723 7.04458 9.74941 7.33784 9.92323 7.77914C10.174 8.4169 10.4404 9.05039 10.7068 9.68246C10.7824 9.86183 10.7724 10.0213 10.694 10.1978C10.553 10.5138 10.3136 10.7473 10.0785 10.9879C9.77221 11.3011 9.76651 11.3722 9.98734 11.7367C10.8693 13.193 12.0889 14.255 13.6718 14.897C13.971 15.018 14.0821 15.0009 14.2873 14.7561C14.5437 14.4514 14.7987 14.1454 15.0424 13.8307C15.3117 13.4834 15.4057 13.4421 15.8132 13.6272C16.3603 13.8763 16.8974 14.1454 17.4374 14.4073C17.6055 14.4884 17.7708 14.5767 17.9418 14.6564C18.1027 14.7304 18.1797 14.8543 18.174 15.028C18.1512 15.7568 17.9745 16.4003 17.3334 16.8644C16.4771 17.4851 15.5638 17.5505 14.5708 17.3128C12.0105 16.7007 10.0401 15.2472 8.52127 13.136C7.99696 12.4072 7.45983 11.684 7.19767 10.8071C6.85288 9.65684 7.0096 8.60624 7.81317 7.67522C8.12376 7.31506 8.47568 7.08159 8.99001 7.16985L8.98716 7.17128Z"
            fill="white" />
    </g>
    <defs>
        <clipPath id="clip0_1975_5698">
            <rect width="24" height="24" fill="white" transform="translate(0.5 0.5)" />
        </clipPath>
    </defs>
</svg>