<?xml version="1.0" encoding="UTF-8"?><!DOCTYPE svg PUBLIC "-//W3C//DTD SVG 1.1//EN" "http://www.w3.org/Graphics/SVG/1.1/DTD/svg11.dtd"><svg xmlns="http://www.w3.org/2000/svg" xmlns:xlink="http://www.w3.org/1999/xlink"><symbol id="icon-arrow-down" viewBox="0 0 24 24"><path d="M20 12L18.59 10.59L13 16.17V4L11 4L11 16.17L5.41 10.59L4 12L12 20L20 12Z" fill="currentColor"/></symbol><symbol id="icon-arrow-left" viewBox="0 0 24 24"><path d="M12 20L13.41 18.59L7.83 13L20 13V11L7.83 11L13.41 5.41L12 4L4 12L12 20Z" fill="currentColor"/></symbol><symbol id="icon-arrow-right" viewBox="0 0 24 24"><path d="M12 4L10.59 5.41L16.17 11H4V13H16.17L10.59 18.59L12 20L20 12L12 4Z" fill="currentColor"/></symbol><symbol id="icon-arrow-up" viewBox="0 0 24 24"><path d="M4 12L5.41 13.41L11 7.83L11 20H13V7.83L18.59 13.41L20 12L12 4L4 12Z" fill="currentColor"/></symbol><symbol id="icon-bed" viewBox="0 0 24 25"><path d="M1.82 3.64c-.213.033-.375.123-.552.306-.29.298-.27-.391-.258 8.735l.01 8.219.086.16c.182.336.517.538.894.538s.712-.202.894-.538c.081-.152.087-.22.098-1.31l.013-1.15h17.99l.013 1.15c.011 1.09.017 1.158.098 1.31.182.336.517.538.894.538s.712-.202.894-.538l.086-.16.011-5.28c.01-4.678.004-5.316-.052-5.594-.088-.44-.195-.704-.423-1.045a3.179 3.179 0 0 0-1.745-1.272l-.311-.089-8.729-.011-8.728-.011-.012-1.629c-.01-1.473-.018-1.643-.083-1.773A1.025 1.025 0 0 0 1.82 3.64M5 13.1v3.5H3v-7h2v3.5m15.4-3.396c.214.1.377.256.494.475.086.16.086.175.097 3.291l.011 3.13H7V9.599l6.61.01 6.61.011.18.084" fill-rule="evenodd"/></symbol><symbol id="icon-caret-down" viewBox="0 0 24 24"><path d="M7 10L12 15L17 10H7Z" fill="currentColor"/></symbol><symbol id="icon-caret-left" viewBox="0 0 24 24"><path d="M14 7L9 12L14 17L14 7Z" fill="currentColor"/></symbol><symbol id="icon-caret-right" viewBox="0 0 24 24"><path d="M10 17L15 12L10 7L10 17Z" fill="currentColor"/></symbol><symbol id="icon-caret-up" viewBox="0 0 24 24"><path d="M17 14L12 9L7 14L17 14Z" fill="currentColor"/></symbol><symbol id="icon-checkmark" viewBox="0 0 24 24"><path d="M9 16.17L4.83 12L3.41 13.41L9 19L21 7L19.59 5.59L9 16.17Z" fill="currentColor"/></symbol><symbol id="icon-chevron-down" viewBox="0 0 24 24"><path d="M7.41 8.59L12 13.17L16.59 8.59L18 10L12 16L6 10L7.41 8.59Z" fill="currentColor"/></symbol><symbol id="icon-chevron-left" viewBox="0 0 24 24"><path d="M15.41 16.59L10.83 12L15.41 7.41L14 6L8 12L14 18L15.41 16.59Z"/></symbol><symbol id="icon-chevron-right" viewBox="0 0 24 24"><path d="M8.59 16.59L13.17 12L8.59 7.41L10 6L16 12L10 18L8.59 16.59Z"/></symbol><symbol id="icon-chevron-up" viewBox="0 0 24 24"><path d="M7.41 15.41L12 10.83L16.59 15.41L18 14L12 8L6 14L7.41 15.41Z" fill="currentColor"/></symbol><symbol id="icon-chevrons-down" viewBox="0 0 48 49"><g fill="none"><path d="M13.707 11.688c-.413.119-.667.491-.667.975v.412l5.14 5.148c2.827 2.832 5.237 5.2 5.356 5.263.119.063.328.114.464.114s.345-.051.464-.114c.119-.063 2.529-2.431 5.356-5.263l5.14-5.148v-.412c0-.324-.043-.462-.205-.655a.995.995 0 0 0-1.016-.322c-.19.055-1.519 1.335-4.999 4.814l-4.739 4.739-4.782-4.78c-2.63-2.628-4.841-4.779-4.914-4.779a.97.97 0 0 1-.238-.033c-.059-.018-.221.001-.36.041m-.395 14.264c-.241.241-.272.32-.272.699v.428l5.261 5.26 5.26 5.261h.878l5.26-5.261 5.261-5.26v-.428c0-.379-.031-.458-.272-.699-.241-.241-.32-.272-.698-.272h-.427l-4.781 4.779L24 35.238l-4.782-4.779-4.781-4.779h-.427c-.378 0-.457.031-.698.272" fill-rule="evenodd" fill="currentColor"/></g></symbol><symbol id="icon-close" viewBox="0 0 24 24"><path d="M19 6.41L17.59 5L12 10.59L6.41 5L5 6.41L10.59 12L5 17.59L6.41 19L12 13.41L17.59 19L19 17.59L13.41 12L19 6.41Z" fill="currentColor"/></symbol><symbol id="icon-external" viewBox="0 0 24 24"><g fill="none"><path d="M16.571 12.4591V15.3759C16.571 16.8249 15.419 18.001 13.9996 18.001H6.57134C5.15196 18.001 4 16.8249 4 15.3759V7.79222C4 6.34316 5.15196 5.16711 6.57134 5.16711H12.8568C13.0174 5.16711 13.1425 5.29486 13.1425 5.45879V6.04214C13.1425 6.20607 13.0174 6.33382 12.8568 6.33382H6.57134C5.78565 6.33382 5.14282 6.9901 5.14282 7.79222V15.3759C5.14282 16.178 5.78565 16.8343 6.57134 16.8343H13.9996C14.7853 16.8343 15.4282 16.178 15.4282 15.3759V12.4591C15.4282 12.2952 15.5533 12.1674 15.7139 12.1674H16.2853C16.4458 12.1674 16.571 12.2952 16.571 12.4591ZM19.9994 4.58375V9.25061C19.9994 9.56971 19.7406 9.83397 19.428 9.83397C19.276 9.83397 19.1332 9.77038 19.0263 9.66071L17.4549 8.05648L11.634 13.9991C11.5803 14.054 11.5003 14.0901 11.4289 14.0901C11.3575 14.0901 11.2769 14.0534 11.2237 13.9991L10.2061 12.9602C10.1524 12.9053 10.1169 12.8237 10.1169 12.7508C10.1169 12.6778 10.1529 12.5956 10.2061 12.5413L16.027 6.59867L14.4556 4.99443C14.3488 4.88535 14.2859 4.73892 14.2859 4.58433C14.2859 4.26524 14.5448 4.00098 14.8573 4.00098H19.4286C19.7412 4.00098 20 4.26524 20 4.58433L19.9994 4.58375Z" fill="currentColor"/></g></symbol><symbol id="icon-facebook" viewBox="0 0 24 24"><path d="M19.1164 4H4.88309C4.39571 4 4 4.39492 4 4.88309V19.1164C4 19.6046 4.39571 20 4.88309 20H12.5459V13.8039H10.4609V11.3888H12.5459V9.60785C12.5459 7.54159 13.8075 6.41586 15.6512 6.41586C16.5351 6.41586 17.293 6.48199 17.5141 6.5107V8.67049L16.2353 8.67101C15.2328 8.67101 15.0395 9.1476 15.0395 9.84654V11.388H17.4311L17.1184 13.8028H15.0392V19.9992H19.1161C19.604 19.9992 20 19.6032 20 19.1164V4.88257C19.9997 4.39492 19.6043 4 19.1164 4Z" fill="currentColor"/></symbol><symbol id="icon-github" viewBox="0 0 24 24"><g fill="none"><path d="M11.9993 4.00068C16.4164 4.00068 20 7.67413 20 12.2019C20 15.822 17.7085 18.8974 14.5309 19.9868C14.1248 20.0613 13.9788 19.805 13.9788 19.5918C13.9788 19.3246 13.9895 18.4389 13.9895 17.3385C13.9895 16.5697 13.7395 16.0783 13.4481 15.822C15.2296 15.619 17.1044 14.9247 17.1044 11.7747C17.1044 10.8774 16.7917 10.1516 16.2817 9.57475C16.365 9.36084 16.6357 8.52842 16.1983 7.39665C15.5316 7.18274 14.0002 8.24001 14.0002 8.24001C13.3648 8.05822 12.6774 7.96253 12 7.96253C11.3226 7.96253 10.6352 8.0589 9.99983 8.24001C9.99983 8.24001 8.46837 7.18274 7.80165 7.39665C7.36428 8.52842 7.63497 9.36152 7.71831 9.57475C7.2076 10.1516 6.89557 10.8774 6.89557 11.7747C6.89557 14.9144 8.7604 15.619 10.5419 15.822C10.3125 16.0359 10.1045 16.3988 10.0312 16.9216C9.57246 17.1355 8.4057 17.4985 7.70831 16.2382C7.27094 15.4584 6.47887 15.3949 6.47887 15.3949C5.69747 15.3839 6.42687 15.8965 6.42687 15.8965C6.94758 16.1418 7.31228 17.0925 7.31228 17.0925C7.78098 18.5557 10.0105 18.0643 10.0105 18.0643C10.0105 18.7478 10.0212 19.3881 10.0212 19.5911C10.0212 19.805 9.87516 20.0613 9.46912 19.9861C6.29152 18.8968 4 15.8213 4 12.2012C4 7.67344 7.58363 4 12.0007 4L11.9993 4.00068ZM7.03025 15.7789C7.05092 15.7359 7.01959 15.6826 6.95758 15.6511C6.89491 15.63 6.8429 15.6402 6.82224 15.6723C6.80157 15.7154 6.8329 15.7687 6.89491 15.8001C6.94691 15.8322 7.00958 15.8213 7.03025 15.7789ZM7.35295 16.1425C7.39495 16.1104 7.38428 16.0359 7.33228 15.9717C7.28027 15.9184 7.2076 15.8972 7.1656 15.9395C7.12359 15.9717 7.13426 16.0462 7.18627 16.1104C7.23827 16.1637 7.31094 16.1849 7.35295 16.1425ZM7.66564 16.623C7.71764 16.5799 7.71764 16.4952 7.66564 16.42C7.62364 16.3455 7.54096 16.3134 7.48829 16.3558C7.43629 16.3879 7.43629 16.4733 7.48829 16.5478C7.5403 16.6223 7.62364 16.6544 7.66564 16.6223V16.623ZM8.10301 17.0713C8.14501 17.0283 8.12368 16.9326 8.06101 16.8683C7.98833 16.7938 7.89432 16.7829 7.85232 16.8362C7.80032 16.8793 7.82099 16.9749 7.89432 17.0392C7.967 17.1137 8.06101 17.1246 8.10301 17.0713ZM8.69706 17.3385C8.71773 17.2743 8.65505 17.1998 8.56171 17.1677C8.47837 17.1465 8.38437 17.1786 8.3637 17.2422C8.34303 17.3057 8.4057 17.3809 8.49904 17.4021C8.58238 17.4342 8.67639 17.4021 8.69706 17.3378V17.3385ZM9.35311 17.3918C9.35311 17.3173 9.26977 17.264 9.17576 17.2743C9.08176 17.2743 9.00908 17.3276 9.00908 17.3918C9.00908 17.4663 9.08176 17.5196 9.18643 17.5094C9.28044 17.5094 9.35311 17.4561 9.35311 17.3918ZM9.95716 17.2852C9.9465 17.221 9.86316 17.1786 9.76981 17.1889C9.67581 17.21 9.6138 17.2743 9.6238 17.3488C9.63447 17.413 9.71781 17.4554 9.81115 17.4342C9.90449 17.413 9.96716 17.3488 9.95716 17.2845V17.2852Z" fill="currentColor"/></g></symbol><symbol id="icon-instagram" viewBox="0 0 24 24"><path d="M14.7081 11.7857C14.7081 10.2154 13.4274 8.9347 11.8571 8.9347C10.2869 8.9347 9.00614 10.2154 9.00614 11.7857C9.00614 13.356 10.2869 14.6367 11.8571 14.6367C13.4274 14.6367 14.7081 13.356 14.7081 11.7857ZM16.245 11.7857C16.245 14.2135 14.285 16.1736 11.8571 16.1736C9.42934 16.1736 7.46927 14.2135 7.46927 11.7857C7.46927 9.35789 9.42934 7.39783 11.8571 7.39783C14.285 7.39783 16.245 9.35789 16.245 11.7857ZM17.4478 7.21964C17.4478 7.78761 16.9912 8.24422 16.4232 8.24422C15.8552 8.24422 15.3986 7.78761 15.3986 7.21964C15.3986 6.65167 15.8552 6.19506 16.4232 6.19506C16.9912 6.19506 17.4478 6.65167 17.4478 7.21964ZM11.8571 4.76956C10.6098 4.76956 7.93701 4.66933 6.8122 5.1148C6.42242 5.27071 6.13286 5.46004 5.83217 5.76073C5.53148 6.06142 5.34215 6.35098 5.18624 6.74076C4.74077 7.86557 4.841 10.5384 4.841 11.7857C4.841 13.033 4.74077 15.7058 5.18624 16.8306C5.34215 17.2204 5.53148 17.51 5.83217 17.8107C6.13286 18.1114 6.42242 18.3007 6.8122 18.4566C7.93701 18.9021 10.6098 18.8018 11.8571 18.8018C13.1045 18.8018 15.7773 18.9021 16.9021 18.4566C17.2919 18.3007 17.5814 18.1114 17.8821 17.8107C18.1828 17.51 18.3721 17.2204 18.528 16.8306C18.9735 15.7058 18.8733 13.033 18.8733 11.7857C18.8733 10.5384 18.9735 7.86557 18.528 6.74076C18.3721 6.35098 18.1828 6.06142 17.8821 5.76073C17.5814 5.46004 17.2919 5.27071 16.9021 5.1148C15.7773 4.66933 13.1045 4.76956 11.8571 4.76956ZM20.4102 11.7857C20.4102 12.9662 20.4213 14.1356 20.3545 15.316C20.2877 16.6859 19.9758 17.8998 18.9735 18.9021C17.9712 19.9044 16.7573 20.2162 15.3875 20.283C14.207 20.3498 13.0376 20.3387 11.8571 20.3387C10.6767 20.3387 9.50729 20.3498 8.3268 20.283C6.95698 20.2162 5.74308 19.9044 4.74077 18.9021C3.73847 17.8998 3.42664 16.6859 3.35982 15.316C3.293 14.1356 3.30413 12.9662 3.30413 11.7857C3.30413 10.6052 3.293 9.43585 3.35982 8.25536C3.42664 6.88554 3.73847 5.67164 4.74077 4.66933C5.74308 3.66702 6.95698 3.35519 8.3268 3.28837C9.50729 3.22155 10.6767 3.23269 11.8571 3.23269C13.0376 3.23269 14.207 3.22155 15.3875 3.28837C16.7573 3.35519 17.9712 3.66702 18.9735 4.66933C19.9758 5.67164 20.2877 6.88554 20.3545 8.25536C20.4213 9.43585 20.4102 10.6052 20.4102 11.7857Z" fill="currentColor"/></symbol><symbol id="icon-linkedin" viewBox="0 0 24 24"><path d="M7.63542 8.48363H4.19792V18.8065H7.63542V8.48363ZM7.85417 5.29613C7.84375 4.28571 7.11458 3.51488 5.9375 3.51488C4.77083 3.51488 4 4.28571 4 5.29613C4 6.28571 4.73958 7.07738 5.89583 7.07738H5.91667C7.11458 7.07738 7.86458 6.28571 7.85417 5.29613ZM12.9583 9.95087V8.48363H9.53125C9.53125 8.48363 9.57292 9.45238 9.53125 18.8065H12.9583V13.0461C12.9583 12.7336 12.9896 12.4315 13.0729 12.2024C13.3229 11.5878 13.8854 10.9524 14.8333 10.9524C16.0729 10.9524 16.5729 11.9003 16.5729 13.2857V18.8065H20V12.8899C20 9.72321 18.3125 8.24404 16.0521 8.24404C14.2263 8.24404 13.4105 9.24396 12.9583 9.95087Z" fill="currentColor"/></symbol><symbol id="icon-location" viewBox="0 0 24 24"><path d="M12 2C8.13 2 5 5.13 5 9C5 14.25 12 22 12 22C12 22 19 14.25 19 9C19 5.13 15.87 2 12 2ZM12 11.5C10.62 11.5 9.5 10.38 9.5 9C9.5 7.62 10.62 6.5 12 6.5C13.38 6.5 14.5 7.62 14.5 9C14.5 10.38 13.38 11.5 12 11.5Z" fill="currentColor"/></symbol><symbol id="icon-menu" viewBox="0 0 24 24"><path d="M3 18H21V16H3V18ZM3 13H21V11H3V13ZM3 6V8H21V6H3Z" fill="currentColor"/></symbol><symbol id="icon-minus" viewBox="0 0 24 24"><path d="M19 13H5V11H19V13Z" fill="currentColor"/></symbol><symbol id="icon-pencil" viewBox="0 0 24 24"><path d="M17.673 1.063c-.261.08-.533.358-.612.627-.077.258-.077.362.002.633.061.209.141.294 2.23 2.384 2.09 2.089 2.175 2.169 2.384 2.23.271.079.375.079.633.002.279-.083.546-.35.629-.629.077-.258.077-.362-.002-.633-.061-.209-.141-.294-2.23-2.384-2.09-2.089-2.175-2.169-2.384-2.23-.262-.076-.403-.076-.65 0M14.66 4.066c-.189.057-.533.393-6.053 5.907-3.219 3.216-5.895 5.919-5.948 6.007-.088.148-1.581 5.505-1.644 5.899-.06.376.175.821.529 1 .366.186.411.178 3.516-.675 1.749-.48 2.86-.804 2.96-.863.088-.053 2.791-2.729 6.007-5.948 5.721-5.727 5.848-5.858 5.91-6.07.079-.272.079-.374 0-.646-.061-.209-.141-.294-2.23-2.384-2.09-2.089-2.175-2.169-2.384-2.23a.974.974 0 0 0-.663.003M16.3 7.72 17.58 9l-5.305 5.305-5.304 5.304-1.75.478c-.962.263-1.758.469-1.769.459-.01-.011.192-.799.45-1.753l.47-1.733 5.304-5.31A977.096 977.096 0 0 1 15 6.44c.011 0 .596.576 1.3 1.28" fill-rule="evenodd"/></symbol><symbol id="icon-play-circle"><path d="M11.34 1.641c-1.576.089-3.026.494-4.477 1.252A11.116 11.116 0 0 0 2.842 6.52a11.012 11.012 0 0 0-1.522 8.72c.359 1.446 1.088 2.956 1.98 4.1a11.035 11.035 0 0 0 7.677 4.223c.638.06 2.04.027 2.623-.061 3.587-.545 6.683-2.809 8.262-6.042.823-1.685 1.187-3.365 1.125-5.2-.081-2.4-.85-4.516-2.35-6.46-.375-.487-1.262-1.377-1.781-1.788a11.022 11.022 0 0 0-7.516-2.371m1.76 2.045c3.625.418 6.721 3.14 7.614 6.694.204.809.263 1.307.263 2.22 0 .857-.055 1.367-.224 2.1-.259 1.116-.837 2.348-1.551 3.301-1.38 1.842-3.368 3.06-5.695 3.488-.423.078-.622.09-1.507.09-1.145 0-1.554-.053-2.478-.318a9.012 9.012 0 0 1-6.42-9.975A9.017 9.017 0 0 1 7.72 4.702c1.675-.898 3.469-1.236 5.38-1.016M9.82 7.638c-.214.036-.376.126-.552.308-.284.292-.271.045-.259 4.736L9.02 16.9l.086.16c.247.458.826.669 1.276.465.197-.09 6.152-4.052 6.312-4.2.364-.337.399-.994.072-1.352-.105-.115-6.082-4.128-6.348-4.262a1.06 1.06 0 0 0-.598-.073m2.8 6.029a85.395 85.395 0 0 1-1.6 1.053c-.011 0-.02-.954-.02-2.12v-2.12l1.6 1.067 1.6 1.066-1.58 1.054" fill-rule="evenodd"/></symbol><symbol id="icon-play"><path d="M5.25 2.037a1.087 1.087 0 0 0-.651.546c-.076.141-.078.451-.078 9.417v9.271l.09.167c.249.461.799.679 1.232.488.259-.115 14.185-9.068 14.352-9.227.073-.07.174-.222.224-.338a.983.983 0 0 0-.238-1.076c-.114-.106-13.537-8.755-14.103-9.086-.29-.17-.612-.233-.828-.162m6.932 6.442c2.994 1.925 5.443 3.51 5.443 3.521 0 .011-2.449 1.596-5.443 3.521L6.62 19.098l-.12.077V4.825l.12.077 5.562 3.577" fill-rule="evenodd"/></symbol><symbol id="icon-plus" viewBox="0 0 24 24"><path d="M19 13H13V19H11V13H5V11H11V5H13V11H19V13Z" fill="currentColor"/></symbol><symbol id="icon-search" viewBox="0 0 24 24"><path d="M15.5 14H14.71L14.43 13.73C15.41 12.59 16 11.11 16 9.5C16 5.91 13.09 3 9.5 3C5.91 3 3 5.91 3 9.5C3 13.09 5.91 16 9.5 16C11.11 16 12.59 15.41 13.73 14.43L14 14.71V15.5L19 20.49L20.49 19L15.5 14ZM9.5 14C7.01 14 5 11.99 5 9.5C5 7.01 7.01 5 9.5 5C11.99 5 14 7.01 14 9.5C14 11.99 11.99 14 9.5 14Z" fill="currentColor"/></symbol><symbol id="icon-shower-head" viewBox="0 0 24 25"><path d="M3.82 3.639c-.642.104-1.009.844-.706 1.426.044.085.523.596 1.063 1.135.541.539.983.992.983 1.007 0 .014-.087.168-.194.34-1.158 1.873-1.163 4.311-.012 6.184.091.149.166.281.166.295 0 .013-.223.254-.496.536-.561.579-.653.749-.612 1.138.07.679.774 1.093 1.388.818.141-.064 1.295-1.196 5.293-5.19 3.059-3.057 5.147-5.172 5.198-5.268.113-.211.122-.654.017-.864a.994.994 0 0 0-.93-.563c-.354.002-.516.099-1.077.649l-.481.47-.32-.195a6.258 6.258 0 0 0-2.262-.799c-.446-.063-1.591-.028-1.998.062-.702.154-1.497.481-2.02.833l-.2.134L5.6 4.78c-.831-.821-1.053-1.019-1.2-1.071-.237-.083-.386-.101-.58-.07m7.312 3.217c.193.057.462.16.596.228l.244.123-2.676 2.677c-1.472 1.472-2.687 2.676-2.701 2.676-.05 0-.288-.593-.384-.96-.126-.482-.141-1.278-.033-1.78a3.932 3.932 0 0 1 2.054-2.672c.683-.349 1.063-.431 1.908-.412.547.013.691.03.992.12M15.82 9.64c-.627.099-.997.804-.725 1.38.181.382.5.588.908.588a.936.936 0 0 0 .721-.315.991.991 0 0 0-.904-1.653m4 1c-.627.099-.997.804-.725 1.38.181.382.5.588.908.588a.936.936 0 0 0 .721-.315.991.991 0 0 0-.904-1.653m-7 2c-.627.099-.997.804-.725 1.38.181.382.5.588.908.588a.936.936 0 0 0 .721-.315.991.991 0 0 0-.904-1.653m4 1c-.627.099-.997.804-.725 1.38.181.382.5.588.908.588a.936.936 0 0 0 .721-.315.991.991 0 0 0-.904-1.653m-7 2c-.627.099-.997.804-.725 1.38.181.382.5.588.908.588a.936.936 0 0 0 .721-.315.991.991 0 0 0-.904-1.653m4 1c-.627.099-.997.804-.725 1.38.181.382.5.588.908.588a.936.936 0 0 0 .721-.315.991.991 0 0 0-.904-1.653m-3 3c-.627.099-.997.804-.725 1.38.181.382.5.588.908.588a.936.936 0 0 0 .721-.315.991.991 0 0 0-.904-1.653" fill-rule="evenodd"/></symbol><symbol id="icon-twitter" viewBox="0 0 24 24"><path d="M20.4875 6.6625C19.8531 6.93594 19.1641 7.13281 18.4531 7.20937C19.1859 6.77187 19.7437 6.08281 20.0063 5.2625C19.3281 5.66719 18.5625 5.9625 17.7641 6.11562C17.1188 5.42656 16.2 5 15.1828 5C13.225 5 11.65 6.58594 11.65 8.53281C11.65 8.80625 11.6828 9.07969 11.7375 9.34219C8.80625 9.18906 6.19219 7.78906 4.45312 5.64531C4.14688 6.17031 3.97187 6.77187 3.97187 7.42812C3.97187 8.65312 4.59531 9.73594 5.54688 10.3703C4.96719 10.3484 4.42031 10.1844 3.95 9.92188V9.96562C3.95 11.6828 5.16406 13.1047 6.78281 13.4328C6.4875 13.5094 6.17031 13.5531 5.85313 13.5531C5.62344 13.5531 5.40469 13.5312 5.18594 13.4984C5.63437 14.8984 6.93594 15.9156 8.48906 15.9484C7.275 16.9 5.75469 17.4578 4.10313 17.4578C3.80781 17.4578 3.53438 17.4469 3.25 17.4141C4.81406 18.4203 6.67344 19 8.675 19C15.1719 19 18.7266 13.6187 18.7266 8.94844C18.7266 8.79531 18.7266 8.64219 18.7156 8.48906C19.4047 7.98594 20.0062 7.3625 20.4875 6.6625Z" fill="currentColor"/></symbol><symbol id="icon-users" viewBox="0 0 24 25"><path d="M8.57 2.642a5.005 5.005 0 0 0-3.633 2.062c-1.346 1.87-1.215 4.485.309 6.198.729.818 1.545 1.306 2.655 1.586.309.078.463.09 1.099.09.636 0 .79-.012 1.099-.09.891-.225 1.578-.576 2.181-1.114 1.892-1.69 2.265-4.38.901-6.495-.659-1.022-1.805-1.834-2.995-2.119-.282-.068-.471-.092-1.066-.135-.099-.008-.347 0-.55.017m7 .202c-.485.241-.699.823-.475 1.296.149.313.324.451.764.602.514.177.852.373 1.185.687A2.95 2.95 0 0 1 18 7.625c0 .834-.374 1.661-1.012 2.239-.299.271-.579.429-1.075.61-.569.206-.711.322-.852.696-.235.624.255 1.307.939 1.309.265.001.983-.236 1.387-.458 1.216-.669 2.111-1.827 2.482-3.212.095-.354.105-.46.108-1.169.002-.73-.004-.808-.109-1.209a6.768 6.768 0 0 0-.232-.72A5.087 5.087 0 0 0 17.26 3.16c-.795-.393-1.332-.493-1.69-.316M9.712 4.706c.166.034.452.14.659.244.641.321 1.244 1.011 1.465 1.676a3.113 3.113 0 0 1-.156 2.334 3.12 3.12 0 0 1-1.8 1.527c-.256.079-.385.093-.88.093s-.624-.014-.88-.093A3.027 3.027 0 0 1 6.013 7.82c-.059-.92.232-1.676.903-2.341.751-.745 1.687-1.004 2.796-.773M5.57 14.64c-1.747.15-3.263 1.188-4.06 2.78-.19.379-.378.984-.453 1.453-.048.305-.059.669-.049 1.707.011 1.264.016 1.327.098 1.48.388.718 1.4.718 1.788 0 .082-.153.087-.226.111-1.58.025-1.494.038-1.599.238-2.066.248-.58.82-1.181 1.398-1.47.668-.334.527-.324 4.359-.324s3.691-.01 4.359.324c.578.289 1.15.89 1.398 1.47.2.467.213.572.238 2.066.024 1.354.029 1.427.111 1.58.182.336.517.538.894.538s.712-.202.894-.538c.082-.153.087-.216.098-1.48.014-1.478-.017-1.802-.236-2.487-.557-1.744-2.017-3.035-3.843-3.398-.291-.058-.749-.068-3.653-.076-1.826-.006-3.487.004-3.69.021m13 .204c-.485.24-.698.821-.476 1.296.139.298.356.471.749.598.182.06.405.145.495.191a3.072 3.072 0 0 1 1.383 1.442c.236.507.249.61.275 2.129.023 1.333.028 1.408.11 1.56.182.336.517.538.894.538s.712-.202.894-.538c.084-.156.086-.2.086-1.62 0-1.574-.014-1.72-.223-2.366-.41-1.267-1.429-2.43-2.602-2.97-.741-.342-1.251-.425-1.585-.26" fill-rule="evenodd"/></symbol><symbol id="icon-whatsapp" viewBox="0 0 24 24"><g fill="none"><path d="M14.2607 12.8067C14.438 12.8067 16.1353 13.6852 16.2087 13.8096C16.2293 13.8612 16.2293 13.9233 16.2293 13.9644C16.2293 14.223 16.146 14.5121 16.052 14.7502C15.8127 15.3291 14.8433 15.7008 14.25 15.7008C13.75 15.7008 12.7187 15.2669 12.2707 15.0598C10.7813 14.3877 9.854 13.2407 8.958 11.9282C8.562 11.3494 8.208 10.6363 8.21867 9.92318V9.84049C8.23933 9.15847 8.48933 8.67226 8.98933 8.20722C9.14533 8.06235 9.312 7.97966 9.53067 7.97966C9.65533 7.97966 9.78067 8.01075 9.916 8.01075C10.1973 8.01075 10.2493 8.09344 10.3533 8.36201C10.426 8.53797 10.9573 9.94369 10.9573 10.0469C10.9573 10.4398 10.2387 10.8844 10.2387 11.1218C10.2387 11.1734 10.2593 11.225 10.2907 11.2766C10.52 11.7622 10.9573 12.3205 11.3533 12.6929C11.8327 13.1481 12.3427 13.4477 12.926 13.7368C12.9987 13.7785 13.072 13.8089 13.1553 13.8089C13.468 13.8089 13.9887 12.8061 14.2593 12.8061L14.2607 12.8067ZM12.146 18.2847C15.75 18.2847 18.6873 15.3701 18.6873 11.7939C18.6873 8.2178 15.75 5.30318 12.146 5.30318C8.542 5.30318 5.60467 8.2178 5.60467 11.7939C5.60467 13.1586 6.042 14.4916 6.85467 15.5976L6.032 18.0062L8.55267 17.2104C9.61533 17.903 10.8753 18.2854 12.1467 18.2854L12.146 18.2847ZM12.146 4C16.4793 4 20 7.49345 20 11.7933C20 16.0931 16.4793 19.5866 12.146 19.5866C10.8233 19.5866 9.51067 19.2558 8.344 18.6148L4 20L5.41667 15.8139C4.67733 14.6047 4.292 13.2089 4.292 11.7933C4.292 7.49345 7.81267 4 12.146 4V4Z" fill="currentColor"/></g></symbol><symbol id="icon-youtube" viewBox="0 0 24 24"><path d="M16.2857 12.1429C16.2857 11.8973 16.1629 11.6629 15.9509 11.5402L10.2366 7.96875C10.0134 7.82366 9.73438 7.82366 9.51116 7.94643C9.28795 8.0692 9.14286 8.31473 9.14286 8.57143V15.7143C9.14286 15.971 9.28795 16.2165 9.51116 16.3393C9.62277 16.3951 9.73437 16.4286 9.85714 16.4286C9.99107 16.4286 10.125 16.3951 10.2366 16.317L15.9509 12.7455C16.1629 12.6228 16.2857 12.3884 16.2857 12.1429ZM22 12.1429C22 13.7388 22 15.4353 21.6429 16.9866C21.4085 18.0804 20.5379 18.8839 19.4888 19.0067C17.0112 19.2857 14.5 19.2857 12 19.2857C9.5 19.2857 6.98884 19.2857 4.51116 19.0067C3.46205 18.8839 2.59152 18.0804 2.34598 16.9866C2 15.4353 2 13.7388 2 12.1429C2 10.5469 2 8.85045 2.35714 7.29911C2.60268 6.20536 3.46205 5.40179 4.51116 5.27902C6.98884 5 9.5 5 12 5C14.5 5 17.0112 5 19.4888 5.27902C20.5379 5.40179 21.4085 6.20536 21.654 7.29911C22 8.85045 22 10.5469 22 12.1429Z" fill="currentColor"/></symbol><symbol id="icon-mail" viewBox="0 0 24 24"><g fill="none"><path d="M22 7L13.03 12.7C12.7213 12.8934 12.3643 12.996 12 12.996C11.6357 12.996 11.2787 12.8934 10.97 12.7L2 7M4 4H20C21.1046 4 22 4.89543 22 6V18C22 19.1046 21.1046 20 20 20H4C2.89543 20 2 19.1046 2 18V6C2 4.89543 2.89543 4 4 4Z" stroke="currentColor" stroke-width="2" stroke-linecap="round" stroke-linejoin="round"/></g></symbol><symbol id="icon-map-pin" viewBox="0 0 24 24"><g fill="none"><path d="M20 10C20 16 12 22 12 22C12 22 4 16 4 10C4 7.87827 4.84285 5.84344 6.34315 4.34315C7.84344 2.84285 9.87827 2 12 2C14.1217 2 16.1566 2.84285 17.6569 4.34315C19.1571 5.84344 20 7.87827 20 10Z" stroke="currentColor" stroke-width="2" stroke-linecap="round" stroke-linejoin="round"/><path d="M12 13C13.6569 13 15 11.6569 15 10C15 8.34315 13.6569 7 12 7C10.3431 7 9 8.34315 9 10C9 11.6569 10.3431 13 12 13Z" stroke="currentColor" stroke-width="2" stroke-linecap="round" stroke-linejoin="round"/></g></symbol><symbol id="icon-phone-call" viewBox="0 0 24 24"><g fill="none"><path d="M14.0498 2C16.0881 2.21477 17.992 3.1188 19.4467 4.56258C20.9014 6.00636 21.8197 7.90341 22.0498 9.94M14.0498 6C15.0333 6.19394 15.9358 6.67903 16.6402 7.39231C17.3446 8.10559 17.8183 9.01413 17.9998 10M21.9999 16.92V19.92C22.0011 20.1985 21.944 20.4741 21.8324 20.7293C21.7209 20.9845 21.5572 21.2136 21.352 21.4018C21.1468 21.5901 20.9045 21.7335 20.6407 21.8227C20.3769 21.9119 20.0973 21.945 19.8199 21.92C16.7428 21.5856 13.7869 20.5341 11.1899 18.85C8.77376 17.3146 6.72527 15.2661 5.18993 12.85C3.49991 10.2412 2.44818 7.27097 2.11993 4.17997C2.09494 3.90344 2.12781 3.62474 2.21643 3.3616C2.30506 3.09846 2.4475 2.85666 2.6347 2.6516C2.82189 2.44653 3.04974 2.28268 3.30372 2.1705C3.55771 2.05831 3.83227 2.00024 4.10993 1.99997H7.10993C7.59524 1.9952 8.06572 2.16705 8.43369 2.48351C8.80166 2.79996 9.04201 3.23942 9.10993 3.71997C9.23656 4.68004 9.47138 5.6227 9.80993 6.52997C9.94448 6.8879 9.9736 7.27689 9.89384 7.65086C9.81408 8.02482 9.6288 8.36809 9.35993 8.63998L8.08993 9.90997C9.51349 12.4135 11.5864 14.4864 14.0899 15.91L15.3599 14.64C15.6318 14.3711 15.9751 14.1858 16.3491 14.1061C16.723 14.0263 17.112 14.0554 17.4699 14.19C18.3772 14.5285 19.3199 14.7634 20.2799 14.89C20.7657 14.9585 21.2093 15.2032 21.5265 15.5775C21.8436 15.9518 22.0121 16.4296 21.9999 16.92Z" stroke="currentColor" stroke-width="2" stroke-linecap="round" stroke-linejoin="round"/></g></symbol></svg>